<?xml version="1.0" encoding="utf-8"?>
<!-- Generator: Adobe Illustrator 18.0.0, SVG Export Plug-In . SVG Version: 6.00 Build 0)  -->
<!DOCTYPE svg PUBLIC "-//W3C//DTD SVG 1.1//EN" "http://www.w3.org/Graphics/SVG/1.1/DTD/svg11.dtd">
<svg version="1.1" id="Layer_1" xmlns="http://www.w3.org/2000/svg" xmlns:xlink="http://www.w3.org/1999/xlink" x="0px" y="0px"
	 viewBox="0 0 299.9 300.2" enable-background="new 0 0 299.9 300.2" xml:space="preserve">
<path fill="#E9E9E9" d="M0,0v300.2h299.8V0H0z M288.1,288.1H11.8v-276h276.3L288.1,288.1L288.1,288.1z"/>
<path fill="#E9E9E9" d="M85,197.9c7.4,0,14.9-3,14.9-13.4v-81.3h-8.8v78.5c0,6.8-1.6,8.8-6,8.8c-4.3,0-6.5-2.1-6.5-8.8v-78.5H70
	v81.3C70,194.9,77.8,197.9,85,197.9z"/>
<path fill="#E9E9E9" d="M116.4,197.1l8.3-39.5h0.3l8.3,39.5h8.6l-12-47.2l11-46.7h-8.6l-7.4,38.1h-0.3l-7.4-38.1h-8.6l11.3,46.7
	l-12.2,47.2L116.4,197.1L116.4,197.1z"/>
<path fill="#E9E9E9" d="M157.8,154.9h5.4c11,0,14.3-3.6,14.3-14.3v-23c0-10.7-3.2-14.3-14.3-14.3h-13.3v93.9h7.9V154.9z
	 M157.8,110.5h4.5c3.9,0,6.6,1,6.6,5.9v25.4c0,4.8-2.7,5.8-6.6,5.8h-4.5V110.5z"/>
<path fill="#E9E9E9" d="M184.9,197.1h7.9v-70.9h-7.9V197.1z"/>
<path fill="#E9E9E9" d="M192.9,103.2h-7.9v9.9h7.9V103.2z"/>
<path fill="#E9E9E9" d="M210.9,139.3c0-2.9,2-6.5,5.8-6.5c3.6,0,5.2,2.7,5.2,6.5v57.9h7.9v-61c0-5.7-3-10.7-9.6-10.7
	c-4.2,0-7.4,2.6-9.2,5.6h-0.3v-4.8H203v70.9h7.9L210.9,139.3L210.9,139.3z"/>
</svg>
